# xmcd
#
# Track frame offsets: 
#        182
#        15010
#        27392
#        39807
#        53542
#        66675
#        79447
#        92455
#        106682
#        120207
#        132175
#        144312
#        157375
#        169560
#        183172
#        197180
#        211175
#        225810
#        238355
#
# Disc length: 3360 seconds
#
# Revision: 5
# Processed by: cddbd v1.5.2PL0 Copyright (c) Steve Scherf et al.
# Submitted via: ExactAudioCopyFreeDBPlugin 1.0
#
DISCID=ea0d1e13
DTITLE=John Lee Hooker - Alternative Boogie: Early Studio Recordings, 
DTITLE=1948-1952
DYEAR=1995
DGENRE=Blues
TTITLE0=No Mortgage On My Soul
TTITLE1=I Come To You Baby
TTITLE2=I Rule My Den
TTITLE3=The Great Disaster Of 1936
TTITLE4=The Winding Highway
TTITLE5=She Quit Me
TTITLE6=How Long Can This Go On
TTITLE7=Can I Say Hello
TTITLE8=I Had A Dream
TTITLE9=Me And A Woman
TTITLE10=Throw My Money Around
TTITLE11=Well I Got To Leave
TTITLE12=I Gotta Be Comin' Back
TTITLE13=I Don't Be Welcome Here
TTITLE14=Two Voice Original Mood
TTITLE15=Three Voice Original Mood
TTITLE16=Johnny Says Come Back
TTITLE17=The Story Of A Married Woman
TTITLE18=Snap Them Fingers Boogie
EXTD=
EXTT0=
EXTT1=
EXTT2=
EXTT3=
EXTT4=
EXTT5=
EXTT6=
EXTT7=
EXTT8=
EXTT9=
EXTT10=
EXTT11=
EXTT12=
EXTT13=
EXTT14=
EXTT15=
EXTT16=
EXTT17=
EXTT18=
PLAYORDER=
